<svg xmlns="http://www.w3.org/2000/svg" width="3840" height="3840"><path d="M2544,2240L3172,1904L2652,916Z" fill="#e4e4e4" stroke="#e4e4e4" stroke-width="1.51"/><path d="M2652,916L1939,1216L2544,2240Z" fill="#e8e8e8" stroke="#e8e8e8" stroke-width="1.51"/><path d="M3942,1452L3183,394L2652,916Z" fill="#e6e6e6" stroke="#e6e6e6" stroke-width="1.51"/><path d="M2544,2240L3708,2232L3172,1904Z" fill="#e0e0e0" stroke="#e0e0e0" stroke-width="1.51"/><path d="M1484,-89L979,926L1939,1216Z" fill="#f2f2f2" stroke="#f2f2f2" stroke-width="1.51"/><path d="M3942,1452L2652,916L3172,1904Z" fill="#e3e3e3" stroke="#e3e3e3" stroke-width="1.51"/><path d="M3708,2232L3942,1452L3172,1904Z" fill="#dfdfdf" stroke="#dfdfdf" stroke-width="1.51"/><path d="M1939,1216L1424,2450L2544,2240Z" fill="#e8e8e8" stroke="#e8e8e8" stroke-width="1.51"/><path d="M3621,3634L4197,2602L3708,2232Z" fill="#d8d8d8" stroke="#d8d8d8" stroke-width="1.51"/><path d="M1939,1216L1058,1366L1424,2450Z" fill="#ececec" stroke="#ececec" stroke-width="1.51"/><path d="M979,926L1058,1366L1939,1216Z" fill="#f0f0f0" stroke="#f0f0f0" stroke-width="1.51"/><path d="M1484,-89L1939,1216L2652,916Z" fill="#efefef" stroke="#efefef" stroke-width="1.51"/><path d="M979,926L885,1109L1058,1366Z" fill="#f2f2f2" stroke="#f2f2f2" stroke-width="1.51"/><path d="M1058,1366L852,1930L1424,2450Z" fill="#ededed" stroke="#ededed" stroke-width="1.51"/><path d="M885,1109L852,1930L1058,1366Z" fill="#f1f1f1" stroke="#f1f1f1" stroke-width="1.51"/><path d="M3708,2232L4197,2602L3942,1452Z" fill="#dcdcdc" stroke="#dcdcdc" stroke-width="1.51"/><path d="M3621,3634L3708,2232L2544,2240Z" fill="#dbdbdb" stroke="#dbdbdb" stroke-width="1.51"/><path d="M3942,1452L4050,331L3183,394Z" fill="#e4e4e4" stroke="#e4e4e4" stroke-width="1.51"/><path d="M5446,1407L4050,331L3942,1452Z" fill="#e2e2e2" stroke="#e2e2e2" stroke-width="1.51"/><path d="M1984,-699L1484,-89L2652,916Z" fill="#f2f2f2" stroke="#f2f2f2" stroke-width="1.51"/><path d="M979,926L-198,761L885,1109Z" fill="#f6f6f6" stroke="#f6f6f6" stroke-width="1.51"/><path d="M1984,-699L2652,916L3183,394Z" fill="#eeeeee" stroke="#eeeeee" stroke-width="1.51"/><path d="M1424,2450L2204,3544L2544,2240Z" fill="#e3e3e3" stroke="#e3e3e3" stroke-width="1.51"/><path d="M1393,3607L2204,3544L1424,2450Z" fill="#e2e2e2" stroke="#e2e2e2" stroke-width="1.51"/><path d="M2204,3544L2680,3852L2544,2240Z" fill="#dddddd" stroke="#dddddd" stroke-width="1.51"/><path d="M2680,3852L3621,3634L2544,2240Z" fill="#dadada" stroke="#dadada" stroke-width="1.51"/><path d="M4050,331L3876,-334L3183,394Z" fill="#e8e8e8" stroke="#e8e8e8" stroke-width="1.51"/><path d="M2662,-1008L1984,-699L3183,394Z" fill="#efefef" stroke="#efefef" stroke-width="1.51"/><path d="M2204,3544L1369,4241L2680,3852Z" fill="#dcdcdc" stroke="#dcdcdc" stroke-width="1.51"/><path d="M186,3688L1393,3607L1424,2450Z" fill="#e6e6e6" stroke="#e6e6e6" stroke-width="1.51"/><path d="M-198,761L-21,2296L852,1930Z" fill="#f3f3f3" stroke="#f3f3f3" stroke-width="1.51"/><path d="M1484,-89L649,179L979,926Z" fill="#f7f7f7" stroke="#f7f7f7" stroke-width="1.51"/><path d="M800,-925L649,179L1484,-89Z" fill="#f9f9f9" stroke="#f9f9f9" stroke-width="1.51"/><path d="M3876,-334L3121,-866L3183,394Z" fill="#ebebeb" stroke="#ebebeb" stroke-width="1.51"/><path d="M4197,2602L5032,2300L3942,1452Z" fill="#dcdcdc" stroke="#dcdcdc" stroke-width="1.51"/><path d="M3621,3634L4504,3241L4197,2602Z" fill="#d6d6d6" stroke="#d6d6d6" stroke-width="1.51"/><path d="M5120,2897L5032,2300L4197,2602Z" fill="#d9d9d9" stroke="#d9d9d9" stroke-width="1.51"/><path d="M4050,331L5450,-217L3876,-334Z" fill="#e8e8e8" stroke="#e8e8e8" stroke-width="1.51"/><path d="M3121,-866L2662,-1008L3183,394Z" fill="#ededed" stroke="#ededed" stroke-width="1.51"/><path d="M852,1930L-21,2296L1424,2450Z" fill="#ededed" stroke="#ededed" stroke-width="1.51"/><path d="M-198,761L852,1930L885,1109Z" fill="#f4f4f4" stroke="#f4f4f4" stroke-width="1.51"/><path d="M3621,3634L4550,4405L4504,3241Z" fill="#d2d2d2" stroke="#d2d2d2" stroke-width="1.51"/><path d="M2680,3852L3576,4148L3621,3634Z" fill="#d5d5d5" stroke="#d5d5d5" stroke-width="1.51"/><path d="M2829,5007L3576,4148L2680,3852Z" fill="#d6d6d6" stroke="#d6d6d6" stroke-width="1.51"/><path d="M4504,3241L5120,2897L4197,2602Z" fill="#d7d7d7" stroke="#d7d7d7" stroke-width="1.51"/><path d="M5561,4389L5120,2897L4504,3241Z" fill="#d4d4d4" stroke="#d4d4d4" stroke-width="1.51"/><path d="M5120,2897L5446,1407L5032,2300Z" fill="#dbdbdb" stroke="#dbdbdb" stroke-width="1.51"/><path d="M5032,2300L5446,1407L3942,1452Z" fill="#dedede" stroke="#dedede" stroke-width="1.51"/><path d="M649,179L-198,761L979,926Z" fill="#f8f8f8" stroke="#f8f8f8" stroke-width="1.51"/><path d="M1393,3607L1369,4241L2204,3544Z" fill="#dedede" stroke="#dedede" stroke-width="1.51"/><path d="M529,4022L1369,4241L1393,3607Z" fill="#e2e2e2" stroke="#e2e2e2" stroke-width="1.51"/><path d="M3121,-866L3935,-1320L2662,-1008Z" fill="#ececec" stroke="#ececec" stroke-width="1.51"/><path d="M3876,-334L3786,-1104L3121,-866Z" fill="#eaeaea" stroke="#eaeaea" stroke-width="1.51"/><path d="M3935,-1320L3786,-1104L3876,-334Z" fill="#e8e8e8" stroke="#e8e8e8" stroke-width="1.51"/><path d="M1984,-699L800,-925L1484,-89Z" fill="#f6f6f6" stroke="#f6f6f6" stroke-width="1.51"/><path d="M649,179L-98,-160L-198,761Z" fill="#fdfdfd" stroke="#fdfdfd" stroke-width="1.51"/><path d="M1578,-1333L800,-925L1984,-699Z" fill="#f6f6f6" stroke="#f6f6f6" stroke-width="1.51"/><path d="M1578,-1333L1984,-699L2662,-1008Z" fill="#f2f2f2" stroke="#f2f2f2" stroke-width="1.51"/><path d="M3935,-1320L1578,-1333L2662,-1008Z" fill="#efefef" stroke="#efefef" stroke-width="1.51"/><path d="M5446,1407L5388,162L4050,331Z" fill="#e4e4e4" stroke="#e4e4e4" stroke-width="1.51"/><path d="M186,3688L529,4022L1393,3607Z" fill="#e5e5e5" stroke="#e5e5e5" stroke-width="1.51"/><path d="M-198,761L-556,1915L-21,2296Z" fill="#f5f5f5" stroke="#f5f5f5" stroke-width="1.51"/><path d="M3786,-1104L3935,-1320L3121,-866Z" fill="#eaeaea" stroke="#eaeaea" stroke-width="1.51"/><path d="M5450,-217L3935,-1320L3876,-334Z" fill="#e8e8e8" stroke="#e8e8e8" stroke-width="1.51"/><path d="M186,3688L1424,2450L-21,2296Z" fill="#ebebeb" stroke="#ebebeb" stroke-width="1.51"/><path d="M-155,3547L186,3688L-21,2296Z" fill="#ececec" stroke="#ececec" stroke-width="1.51"/><path d="M-1111,1918L-978,2055L-556,1915Z" fill="#f3f3f3" stroke="#f3f3f3" stroke-width="1.51"/><path d="M800,-925L-98,-160L649,179Z" fill="#fcfcfc" stroke="#fcfcfc" stroke-width="1.51"/><path d="M5388,162L5450,-217L4050,331Z" fill="#e8e8e8" stroke="#e8e8e8" stroke-width="1.51"/><path d="M5446,1407L5450,-217L5388,162Z" fill="#e6e6e6" stroke="#e6e6e6" stroke-width="1.51"/><path d="M-973,3363L-155,3547L-21,2296Z" fill="#ededed" stroke="#ededed" stroke-width="1.51"/><path d="M-774,4134L505,4974L529,4022Z" fill="#e8e8e8" stroke="#e8e8e8" stroke-width="1.51"/><path d="M3576,4148L4550,4405L3621,3634Z" fill="#d2d2d2" stroke="#d2d2d2" stroke-width="1.51"/><path d="M1369,4241L2829,5007L2680,3852Z" fill="#dbdbdb" stroke="#dbdbdb" stroke-width="1.51"/><path d="M1644,5617L2829,5007L1369,4241Z" fill="#dddddd" stroke="#dddddd" stroke-width="1.51"/><path d="M3772,5110L4550,4405L3576,4148Z" fill="#d2d2d2" stroke="#d2d2d2" stroke-width="1.51"/><path d="M-556,1915L-978,2055L-21,2296Z" fill="#f2f2f2" stroke="#f2f2f2" stroke-width="1.51"/><path d="M-1111,1918L-556,1915L-198,761Z" fill="#f6f6f6" stroke="#f6f6f6" stroke-width="1.51"/><path d="M-978,2055L-973,3363L-21,2296Z" fill="#f0f0f0" stroke="#f0f0f0" stroke-width="1.51"/><path d="M-1412,448L-1111,1918L-198,761Z" fill="#f9f9f9" stroke="#f9f9f9" stroke-width="1.51"/><path d="M2829,5007L3772,5110L3576,4148Z" fill="#d4d4d4" stroke="#d4d4d4" stroke-width="1.51"/><path d="M800,-925L95,-1402L-98,-160Z" fill="#fdfdfd" stroke="#fdfdfd" stroke-width="1.51"/><path d="M-98,-160L-1114,-237L-198,761Z" fill="#fefefe" stroke="#fefefe" stroke-width="1.51"/><path d="M1578,-1333L95,-1402L800,-925Z" fill="#fafafa" stroke="#fafafa" stroke-width="1.51"/><path d="M-276,-1743L95,-1402L1578,-1333Z" fill="#fcfcfc" stroke="#fcfcfc" stroke-width="1.51"/><path d="M529,4022L505,4974L1369,4241Z" fill="#e3e3e3" stroke="#e3e3e3" stroke-width="1.51"/><path d="M2829,5007L4237,5696L3772,5110Z" fill="#d3d3d3" stroke="#d3d3d3" stroke-width="1.51"/><path d="M-774,4134L529,4022L186,3688Z" fill="#e8e8e8" stroke="#e8e8e8" stroke-width="1.51"/><path d="M-774,4134L186,3688L-155,3547Z" fill="#e9e9e9" stroke="#e9e9e9" stroke-width="1.51"/><path d="M-1111,1918L-973,3363L-978,2055Z" fill="#f0f0f0" stroke="#f0f0f0" stroke-width="1.51"/><path d="M3772,5110L4942,4911L4550,4405Z" fill="#d2d2d2" stroke="#d2d2d2" stroke-width="1.51"/><path d="M4550,4405L5561,4389L4504,3241Z" fill="#d2d2d2" stroke="#d2d2d2" stroke-width="1.51"/><path d="M5120,2897L5561,4389L5446,1407Z" fill="#d7d7d7" stroke="#d7d7d7" stroke-width="1.51"/><path d="M4942,4911L5561,4389L4550,4405Z" fill="#d2d2d2" stroke="#d2d2d2" stroke-width="1.51"/><path d="M5446,1407L5683,-1834L5450,-217Z" fill="#e8e8e8" stroke="#e8e8e8" stroke-width="1.51"/><path d="M-1055,-1339L-1114,-237L-98,-160Z" fill="#ffffff" stroke="#ffffff" stroke-width="1.51"/><path d="M505,4974L1644,5617L1369,4241Z" fill="#e1e1e1" stroke="#e1e1e1" stroke-width="1.51"/><path d="M3772,5110L4237,5696L4942,4911Z" fill="#d2d2d2" stroke="#d2d2d2" stroke-width="1.51"/><path d="M-1114,-237L-1412,448L-198,761Z" fill="#fdfdfd" stroke="#fdfdfd" stroke-width="1.51"/><path d="M-1111,1918L-1765,3901L-973,3363Z" fill="#ededed" stroke="#ededed" stroke-width="1.51"/><path d="M-973,3363L-774,4134L-155,3547Z" fill="#e9e9e9" stroke="#e9e9e9" stroke-width="1.51"/><path d="M95,-1402L-1055,-1339L-98,-160Z" fill="#ffffff" stroke="#ffffff" stroke-width="1.51"/><path d="M5683,-1834L-276,-1743L1578,-1333Z" fill="#f1f1f1" stroke="#f1f1f1" stroke-width="1.51"/><path d="M4942,4911L4237,5696L5561,4389Z" fill="#d2d2d2" stroke="#d2d2d2" stroke-width="1.51"/><path d="M1644,5617L4237,5696L2829,5007Z" fill="#d7d7d7" stroke="#d7d7d7" stroke-width="1.51"/><path d="M3935,-1320L5683,-1834L1578,-1333Z" fill="#e9e9e9" stroke="#e9e9e9" stroke-width="1.51"/><path d="M5450,-217L5683,-1834L3935,-1320Z" fill="#e8e8e8" stroke="#e8e8e8" stroke-width="1.51"/><path d="M5561,4389L5683,-1834L5446,1407Z" fill="#e0e0e0" stroke="#e0e0e0" stroke-width="1.51"/><path d="M-1114,-237L-1055,-1339L-1412,448Z" fill="#ffffff" stroke="#ffffff" stroke-width="1.51"/><path d="M-276,-1743L-1055,-1339L95,-1402Z" fill="#ffffff" stroke="#ffffff" stroke-width="1.51"/><path d="M-973,3363L-1765,3901L-774,4134Z" fill="#e8e8e8" stroke="#e8e8e8" stroke-width="1.51"/><path d="M-774,4134L-226,5720L505,4974Z" fill="#e8e8e8" stroke="#e8e8e8" stroke-width="1.51"/><path d="M505,4974L-226,5720L1644,5617Z" fill="#e4e4e4" stroke="#e4e4e4" stroke-width="1.51"/><path d="M-1412,448L-1765,3901L-1111,1918Z" fill="#f2f2f2" stroke="#f2f2f2" stroke-width="1.51"/><path d="M1644,5617L-226,5720L4237,5696Z" fill="#dddddd" stroke="#dddddd" stroke-width="1.51"/><path d="M-1371,5601L-226,5720L-774,4134Z" fill="#e8e8e8" stroke="#e8e8e8" stroke-width="1.51"/><path d="M-1765,3901L-1371,5601L-774,4134Z" fill="#e8e8e8" stroke="#e8e8e8" stroke-width="1.51"/></svg>